<svg id="e3zg9kz0km6g1" xmlns="http://www.w3.org/2000/svg" xmlns:xlink="http://www.w3.org/1999/xlink" viewBox="0 0 237 179" shape-rendering="geometricPrecision" text-rendering="geometricPrecision"><style><![CDATA[#e3zg9kz0km6g17_to {animation: e3zg9kz0km6g17_to__to 4000ms linear infinite normal forwards}@keyframes e3zg9kz0km6g17_to__to { 0% {transform: translate(156.716471px,0px)} 22.500000% {transform: translate(156.716471px,0px)} 47.500000% {transform: translate(156.716471px,54.140574px)} 100% {transform: translate(156.716471px,54.140574px)} }#e3zg9kz0km6g17 {animation: e3zg9kz0km6g17_c_o 4000ms linear infinite normal forwards}@keyframes e3zg9kz0km6g17_c_o { 0% {opacity: 0} 35% {opacity: 0} 56% {opacity: 1} 87.500000% {opacity: 1} 100% {opacity: 0} }#e3zg9kz0km6g21_to {animation: e3zg9kz0km6g21_to__to 4000ms linear infinite normal forwards}@keyframes e3zg9kz0km6g21_to__to { 0% {transform: translate(147.401194px,10px)} 12.500000% {transform: translate(147.401194px,10px)} 37.500000% {transform: translate(147.401194px,57.299914px)} 100% {transform: translate(147.401194px,57.299914px)} }#e3zg9kz0km6g21 {animation: e3zg9kz0km6g21_c_o 4000ms linear infinite normal forwards}@keyframes e3zg9kz0km6g21_c_o { 0% {opacity: 0} 22.500000% {opacity: 0} 42.500000% {opacity: 1;animation-timing-function: cubic-bezier(0.420000,0,1,1)} 75% {opacity: 1} 100% {opacity: 0} }#e3zg9kz0km6g25_to {animation: e3zg9kz0km6g25_to__to 4000ms linear infinite normal forwards}@keyframes e3zg9kz0km6g25_to__to { 0% {transform: translate(135.652170px,20px)} 25% {transform: translate(135.652170px,59.212912px)} 100% {transform: translate(135.652170px,59.212912px)} }#e3zg9kz0km6g25 {animation: e3zg9kz0km6g25_c_o 4000ms linear infinite normal forwards}@keyframes e3zg9kz0km6g25_c_o { 0% {opacity: 0} 10% {opacity: 0;animation-timing-function: cubic-bezier(0.470000,0,0.745000,0.715000)} 32.500000% {opacity: 1;animation-timing-function: cubic-bezier(0.420000,0,1,1)} 62.500000% {opacity: 1} 100% {opacity: 0} }#e3zg9kz0km6g52 {animation: e3zg9kz0km6g52_c_o 4000ms linear infinite normal forwards}@keyframes e3zg9kz0km6g52_c_o { 0% {opacity: 0.250000} 25% {opacity: 0.050000} 75% {opacity: 0.500000} 100% {opacity: 0.250000} }#e3zg9kz0km6g53_to {animation: e3zg9kz0km6g53_to__to 4000ms linear infinite normal forwards}@keyframes e3zg9kz0km6g53_to__to { 0% {transform: translate(72.339001px,94.415501px)} 25% {transform: translate(72.339001px,90px);animation-timing-function: cubic-bezier(0.420000,0,0.580000,1)} 75% {transform: translate(72.339001px,97.110501px);animation-timing-function: cubic-bezier(0.420000,0,0.580000,1)} 100% {transform: translate(72.339001px,94.420000px)} }]]></style><defs><path id="e3zg9kz0km6g2" d="M0,13.878000L0,40.813000L20.984000,52.830000L44.678000,38.817000L44.678000,11.883000"/><linearGradient id="e3zg9kz0km6g9-fill" x1="0.611810" y1="0.368580" x2="0.407880" y2="0.555240" spreadMethod="pad" gradientUnits="objectBoundingBox"><stop id="e3zg9kz0km6g9-fill-0" offset="0%" stop-color="rgb(120,180,106)"/><stop id="e3zg9kz0km6g9-fill-1" offset="3%" stop-color="rgb(127,53,0)"/><stop id="e3zg9kz0km6g9-fill-2" offset="100%" stop-color="rgb(255,255,255)"/></linearGradient><linearGradient id="e3zg9kz0km6g16-fill" x1="0.810160" y1="0.605580" x2="0.674620" y2="0.552620" spreadMethod="pad" gradientUnits="objectBoundingBox"><stop id="e3zg9kz0km6g16-fill-0" offset="0%" stop-color="rgba(255,255,255,0)"/><stop id="e3zg9kz0km6g16-fill-1" offset="99%" stop-color="rgb(220,132,30)"/></linearGradient><linearGradient id="e3zg9kz0km6g31-fill" x1="0.806600" y1="0.219450" x2="0.215570" y2="0.665720" spreadMethod="pad" gradientUnits="objectBoundingBox"><stop id="e3zg9kz0km6g31-fill-0" offset="0%" stop-color="rgb(120,180,106)"/><stop id="e3zg9kz0km6g31-fill-1" offset="3%" stop-color="rgb(127,53,0)"/><stop id="e3zg9kz0km6g31-fill-2" offset="100%" stop-color="rgb(255,255,255)"/></linearGradient><linearGradient id="e3zg9kz0km6g39-fill" x1="0.821860" y1="0.285820" x2="0.298520" y2="0.624280" spreadMethod="pad" gradientUnits="objectBoundingBox"><stop id="e3zg9kz0km6g39-fill-0" offset="0%" stop-color="rgb(120,180,106)"/><stop id="e3zg9kz0km6g39-fill-1" offset="3%" stop-color="rgb(127,53,0)"/><stop id="e3zg9kz0km6g39-fill-2" offset="100%" stop-color="rgb(255,255,255)"/></linearGradient><linearGradient id="e3zg9kz0km6g52-fill" x1="0.821830" y1="0.276020" x2="0.298570" y2="0.622880" spreadMethod="pad" gradientUnits="objectBoundingBox"><stop id="e3zg9kz0km6g52-fill-0" offset="0%" stop-color="rgb(120,180,106)"/><stop id="e3zg9kz0km6g52-fill-1" offset="3%" stop-color="rgb(127,53,0)"/><stop id="e3zg9kz0km6g52-fill-2" offset="100%" stop-color="rgb(255,255,255)"/></linearGradient></defs><g id="e3zg9kz0km6g3" transform="matrix(1 0 0 1 -29.07077980000000 -0.40711795999999)"><g id="e3zg9kz0km6g4" transform="matrix(1 0 0 1 29 0)"><g id="e3zg9kz0km6g5"><path id="e3zg9kz0km6g6" d="M114.994000,178.096000L4.676000,112.920000C1.164000,110.946000,-1.847000,107.711000,1.576000,105.589000L112.286000,41.800000C113.946000,40.770000,116.467000,40.095000,118.159000,41.080000L233.945000,108.270000C237.457000,110.308000,238.087000,115.987000,234.588000,118.044000L129.532000,177.994000C125.044802,180.595722,119.517262,180.634504,114.994000,178.096000Z" fill="rgb(91,54,160)" stroke="none" stroke-width="1"/><path id="e3zg9kz0km6g7" d="M114.994000,175.088000L4.676000,109.910000C1.164000,107.935000,-1.847000,104.700000,1.576000,102.578000L112.286000,38.790000C113.946000,37.761000,116.467000,37.086000,118.159000,38.070000L233.945000,105.260000C237.457000,107.299000,238.087000,112.977000,234.588000,115.035000L129.532000,174.984000C125.044979,177.586033,119.517439,177.625195,114.994000,175.087000Z" fill="rgb(104,98,230)" stroke="none" stroke-width="1"/></g><g id="e3zg9kz0km6g8"><path id="e3zg9kz0km6g9" style="mix-blend-mode:multiply" d="M124.090000,89.094000L102.322000,101.512000C102.322000,101.512000,135.855000,121.969000,142.712000,124.850000L159.086334,101.512000" opacity="0.25" fill="url(#e3zg9kz0km6g9-fill)" stroke="none" stroke-width="1"/><path id="e3zg9kz0km6g10" d="M132.735000,84.245000L120.687000,90.033000C119.762312,90.477649,119.158869,91.396703,119.118437,92.421948C119.078005,93.447192,119.607200,94.410913,120.494000,94.927000L149.048000,111.583000C150.330396,112.332263,151.975437,111.938088,152.779000,110.689000L159.719000,99.898000" fill="rgb(161,72,45)" stroke="none" stroke-width="1"/><path id="e3zg9kz0km6g11" d="M198.264000,56.328000L102.194000,0.984000C100.852730,0.212945,99.202241,0.214954,97.862852,0.989272C96.523463,1.763590,95.698113,3.192897,95.697000,4.740000L95.697000,62.315000C95.697000,63.602000,96.383000,64.791000,97.497000,65.435000L199.917000,124.541000C200.636020,124.956842,201.522357,124.957139,202.241655,124.541778C202.960954,124.126417,203.403747,123.358611,203.403000,122.528000L203.403000,65.190000C203.399802,61.528815,201.439346,58.148745,198.263000,56.328000Z" fill="rgb(244,123,86)" stroke="none" stroke-width="1"/><path id="e3zg9kz0km6g12" d="M102.200000,5.338000L195.369000,58.926000C197.393902,60.091503,198.642261,62.249630,198.643000,64.586000L198.643000,107.743000C198.641580,108.583580,198.193164,109.359958,197.465768,109.781233C196.738373,110.202509,195.841806,110.205086,195.112000,109.788000L100.096000,55.306000C99.372198,54.890978,98.925842,54.120345,98.926000,53.286000L98.926000,7.235000C98.925646,6.454871,99.341066,5.733679,100.016074,5.342570C100.691082,4.951461,101.523361,4.949720,102.200000,5.338000Z" fill="rgb(255,255,255)" stroke="none" stroke-width="1"/><ellipse id="e3zg9kz0km6g13" rx="2.026000" ry="2.315000" transform="matrix(0.98195900000000 -0.18909500000000 0.18909500000000 0.98195900000000 140.96395584100000 84.46704327300000)" fill="rgb(171,100,60)" stroke="none" stroke-width="1"/><path id="e3zg9kz0km6g14" d="M112.563000,19.620000C113.564947,21.061687,114.144060,22.754692,114.235000,24.508000C114.346962,25.310744,114.151592,26.126157,113.688000,26.791000C113.282180,27.237113,112.625472,27.351162,112.093000,27.068000C111.767709,26.938131,111.473844,26.740402,111.231000,26.488000C111.012844,26.283500,110.826455,26.047564,110.678000,25.788000L110.524000,25.486000C110.482000,25.565000,110.430000,25.638000,110.369000,25.704000C110.216000,25.824000,110.034000,25.901000,109.842000,25.929000C109.520000,25.989000,109.188000,25.949000,108.890000,25.814000C108.178798,25.506337,107.587010,24.975623,107.204000,24.302000C106.742705,23.570615,106.485160,22.729280,106.458000,21.865000C106.363000,21.165000,106.582000,20.459000,107.056000,19.935000C107.473823,19.532206,108.099339,19.434619,108.620000,19.691000C108.878000,19.794000,109.115000,19.942000,109.320000,20.129000C109.496000,20.278000,109.652000,20.449000,109.784000,20.637000L109.900000,20.843000L109.900000,20.270000L111.186000,20.772000L111.315000,24.386000C111.324000,24.645000,111.404000,24.896000,111.546000,25.113000C111.667000,25.322000,111.852000,25.486000,112.074000,25.583000C112.696000,25.827000,112.983000,25.291000,112.936000,23.974000C112.870975,22.670473,112.440583,21.411525,111.694000,20.341000C111.022790,19.251780,110.025635,18.401574,108.844000,17.911000C107.966925,17.465360,106.906703,17.600117,106.169000,18.251000C105.390483,19.032666,105.009325,20.125736,105.133000,21.222000C105.206550,22.600781,105.651215,23.934084,106.420000,25.081000C107.031880,26.213678,107.995747,27.116470,109.166000,27.653000C109.574000,27.823000,110.011000,27.908000,110.453000,27.903000C110.740000,27.923000,111.028000,27.870000,111.289000,27.749000L111.546000,27.608000L112.325000,29.055000L112.196000,29.145000C112.074000,29.213000,111.947000,29.274000,111.816000,29.325000C111.611000,29.414000,111.395000,29.475000,111.173000,29.505000C110.889269,29.543042,110.601731,29.543042,110.318000,29.505000C109.945147,29.460413,109.579719,29.367292,109.231000,29.228000C108.240554,28.802234,107.360490,28.155782,106.658000,27.338000C105.825618,26.417849,105.151788,25.365878,104.664000,24.225000C104.175467,23.135775,103.895951,21.964453,103.840000,20.772000C103.770778,19.769540,103.975409,18.767122,104.432000,17.872000C104.811163,17.120693,105.465625,16.544681,106.259000,16.264000C107.090210,15.990179,107.993614,16.035813,108.793000,16.392000C110.353962,17.051577,111.671376,18.179941,112.563000,19.621000ZM109.726000,24.193000C109.937000,23.923000,110.032000,23.581000,109.990000,23.241000C109.979803,22.821724,109.862408,22.412045,109.649000,22.051000C109.474370,21.735903,109.200504,21.487349,108.870000,21.344000C108.610851,21.210816,108.296337,21.251822,108.080000,21.447000C107.854877,21.702304,107.751304,22.042565,107.796000,22.380000C107.811000,22.804000,107.937000,23.216000,108.163000,23.576000C108.348000,23.902000,108.635000,24.160000,108.980000,24.309000C109.227000,24.436000,109.528000,24.389000,109.726000,24.193000M188.512000,89.255000C189.515308,90.695624,190.094568,92.388710,190.184000,94.142000C190.296251,94.944617,190.101241,95.760017,189.638000,96.425000C189.230953,96.869640,188.575071,96.983474,188.042000,96.702000C187.717691,96.570279,187.424190,96.372795,187.180000,96.122000C186.963016,95.916426,186.776771,95.680672,186.627000,95.422000L186.473000,95.120000C186.429292,95.198010,186.377327,95.271096,186.318000,95.338000C186.166000,95.458000,185.984000,95.537000,185.791000,95.563000C185.472000,95.627000,185.141000,95.589000,184.845000,95.454000C184.133266,95.144600,183.541739,94.611699,183.160000,93.936000C182.694365,93.203972,182.434274,92.360143,182.407000,91.493000C182.308000,90.793000,182.527000,90.085000,183.006000,89.563000C183.421405,89.161857,184.043745,89.064266,184.562000,89.319000C184.820000,89.421000,185.058000,89.569000,185.263000,89.756000C185.439000,89.908000,185.594000,90.081000,185.727000,90.271000L185.849000,90.476000L185.849000,89.904000L187.135000,90.399000L187.264000,94.013000C187.275000,94.272000,187.355000,94.523000,187.495000,94.740000C187.616000,94.950000,187.801000,95.114000,188.023000,95.210000C188.666000,95.454000,188.930000,94.920000,188.891000,93.602000C188.825809,92.296500,188.395869,91.035434,187.650000,89.962000C186.978983,88.876711,185.984729,88.028990,184.807000,87.538000C183.930563,87.091998,182.870923,87.224255,182.131000,87.872000C181.356407,88.662755,180.984580,89.763512,181.121000,90.862000C181.193019,92.240919,181.637442,93.574534,182.407000,94.721000C183.043144,95.827020,184.017653,96.699521,185.187000,97.210000C185.594000,97.380000,186.031000,97.467000,186.473000,97.467000C186.760000,97.484000,187.047000,97.431000,187.309000,97.312000L187.566000,97.171000L188.345000,98.618000L188.215000,98.708000C188.094000,98.777000,187.967000,98.837000,187.836000,98.888000C187.629521,98.973164,187.413685,99.033584,187.193000,99.068000C186.906917,99.105909,186.617083,99.105909,186.331000,99.068000C185.960227,99.021024,185.597165,98.925888,185.251000,98.785000C184.261150,98.360965,183.381136,97.716603,182.678000,96.901000C181.844980,95.978525,181.170822,94.924203,180.683000,93.781000C180.194504,92.692164,179.915310,91.521113,179.860000,90.329000C179.790255,89.328432,179.994945,88.327805,180.452000,87.435000C180.831900,86.682710,181.485776,86.104709,182.279000,85.820000C183.112842,85.549481,184.017134,85.595764,184.819000,85.950000C186.361851,86.643729,187.651962,87.798297,188.512000,89.255000ZM185.675000,93.827000C185.888000,93.558000,185.985000,93.216000,185.945000,92.875000C185.933834,92.455055,185.814300,92.045128,185.598000,91.685000C185.426728,91.369822,185.154988,91.120962,184.826000,90.978000C184.567809,90.842740,184.252859,90.881362,184.035000,91.075000C183.806456,91.328175,183.700452,91.668850,183.745000,92.007000C183.760000,92.429000,183.887000,92.840000,184.112000,93.197000C184.297000,93.525000,184.584000,93.785000,184.929000,93.937000C185.175327,94.065293,185.476186,94.020930,185.675000,93.827000" fill="rgb(244,123,86)" stroke="none" stroke-width="1"/><g id="e3zg9kz0km6g15"><path id="e3zg9kz0km6g16" display="none" d="M127.242000,63.891000L170.539000,89.898000L191.928000,77.467000L153.712000,55.229000" opacity="0.32" fill="url(#e3zg9kz0km6g16-fill)" stroke="none" stroke-width="1"/><g id="e3zg9kz0km6g17_to" transform="translate(156.716471,0)"><g id="e3zg9kz0km6g17" transform="translate(-156.716471,-54.140574)" opacity="0"><path id="e3zg9kz0km6g18" d="M180.748000,58.714000L133.938000,30.180000C133.427731,29.885162,132.797645,29.890486,132.292431,30.193905C131.787217,30.497325,131.486477,31.051032,131.507000,31.640000L131.507000,47.897000C131.502772,48.495554,131.812910,49.052436,132.324000,49.364000L179.127000,77.294000C179.627784,77.578151,180.241974,77.574193,180.739054,77.283612C181.236134,76.993030,181.540912,76.459780,181.539000,75.884000L181.783000,60.727000C181.819766,59.919854,181.425852,59.153720,180.748000,58.714000Z" fill="rgb(226,172,0)" stroke="none" stroke-width="1"/><path id="e3zg9kz0km6g19" d="M169.549000,67.080000C171.228000,69.428000,174.180000,70.084000,176.136000,68.553000C178.091000,67.023000,178.316000,63.878000,176.637000,61.537000C174.958000,59.197000,172.006000,58.534000,170.050000,60.065000C168.095000,61.595000,167.870000,64.734000,169.549000,67.081000Z" fill="rgb(255,255,255)" stroke="none" stroke-width="1"/><path id="e3zg9kz0km6g20" d="M164.956000,55.814000L145.864000,44.322000C145.524978,44.166663,145.123401,44.293032,144.934427,44.614520C144.745454,44.936007,144.830373,45.348345,145.131000,45.569000L164.223000,57.061000C164.562022,57.216337,164.963599,57.089968,165.152573,56.768480C165.341546,56.446993,165.256627,56.034655,164.956000,55.814000ZM164.171000,60.483000L137.856000,44.643000C137.523148,44.526091,137.154403,44.665021,136.981446,44.972501C136.808488,45.279980,136.881244,45.667255,137.154000,45.891000L163.438000,61.737000C163.777654,61.894960,164.181731,61.768984,164.371440,61.445987C164.561149,61.122990,164.474381,60.708720,164.171000,60.489000L164.171000,60.483000Z" fill="rgb(242,242,242)" stroke="none" stroke-width="1"/></g></g><g id="e3zg9kz0km6g21_to" transform="translate(147.401194,10)"><g id="e3zg9kz0km6g21" transform="translate(-147.401194,-57.299914)" opacity="0"><path id="e3zg9kz0km6g22" d="M171.408000,61.865000L124.624000,33.338000C124.113671,33.042632,123.483203,33.047673,122.977662,33.351163C122.472121,33.654654,122.171251,34.208723,122.192000,34.798000L122.192000,51.048000C122.185000,51.648000,122.492000,52.207000,123.002000,52.521000L169.806000,80.451000C170.311908,80.741635,170.935241,80.736804,171.436583,80.438361C171.937925,80.139919,172.239318,79.594272,172.225000,79.011000L172.469000,63.852000C172.490853,63.048819,172.087602,62.293625,171.408000,61.865000Z" fill="rgb(244,123,86)" stroke="none" stroke-width="1"/><path id="e3zg9kz0km6g23" d="M160.209000,70.232000C161.888000,72.579000,164.840000,73.235000,166.796000,71.705000C168.751000,70.175000,168.976000,67.029000,167.297000,64.688000C165.618000,62.348000,162.666000,61.685000,160.710000,63.216000C158.755000,64.746000,158.530000,67.885000,160.209000,70.232000Z" fill="rgb(255,255,255)" stroke="none" stroke-width="1"/><path id="e3zg9kz0km6g24" d="M155.616000,58.965000L136.510000,47.473000C136.170346,47.315040,135.766269,47.441016,135.576560,47.764013C135.386851,48.087010,135.473619,48.501280,135.777000,48.721000L154.869000,60.213000C155.208654,60.370960,155.612731,60.244984,155.802440,59.921987C155.992149,59.598990,155.905381,59.184720,155.602000,58.965000L155.615000,58.965000ZM154.825000,63.666000L128.515000,47.801000C128.175346,47.643040,127.771269,47.769016,127.581560,48.092013C127.391851,48.415010,127.478619,48.829280,127.782000,49.049000L154.098000,64.888000C154.437654,65.045960,154.841731,64.919984,155.031440,64.596987C155.221149,64.273990,155.134381,63.859720,154.831000,63.640000L154.825000,63.666000Z" fill="rgb(242,242,242)" stroke="none" stroke-width="1"/></g></g><g id="e3zg9kz0km6g25_to" transform="translate(135.652170,20)"><g id="e3zg9kz0km6g25" transform="translate(-135.652170,-59.212912)" opacity="0"><path id="e3zg9kz0km6g26" d="M159.668000,63.782000L112.872000,35.254000C112.361671,34.958632,111.731203,34.963673,111.225662,35.267163C110.720121,35.570654,110.419251,36.124723,110.440000,36.714000L110.440000,52.965000C110.436124,53.563199,110.746217,54.119620,111.257000,54.431000L158.060000,82.361000C158.565908,82.651635,159.189241,82.646804,159.690583,82.348361C160.191925,82.049919,160.493318,81.504272,160.479000,80.921000L160.723000,65.762000C160.744000,64.962000,160.343000,64.211000,159.668000,63.782000Z" fill="rgb(104,225,253)" stroke="none" stroke-width="1"/><path id="e3zg9kz0km6g27" d="M159.668000,63.782000L112.872000,35.254000C112.361671,34.958632,111.731203,34.963673,111.225662,35.267163C110.720121,35.570654,110.419251,36.124723,110.440000,36.714000L110.440000,52.965000C110.436124,53.563199,110.746217,54.119620,111.257000,54.431000L158.060000,82.361000C158.565908,82.651635,159.189241,82.646804,159.690583,82.348361C160.191925,82.049919,160.493318,81.504272,160.479000,80.921000L160.723000,65.762000C160.744000,64.962000,160.343000,64.211000,159.668000,63.782000Z" fill="rgb(104,225,253)" stroke="none" stroke-width="1"/><path id="e3zg9kz0km6g28" d="M148.463000,72.148000C150.142000,74.496000,153.094000,75.152000,155.050000,73.621000C157.005000,72.091000,157.230000,68.946000,155.551000,66.605000C153.873000,64.265000,150.920000,63.602000,148.965000,65.132000C147.009000,66.662000,146.803000,69.802000,148.463000,72.148000Z" fill="rgb(255,255,255)" stroke="none" stroke-width="1"/><path id="e3zg9kz0km6g29" d="M143.870000,60.881000L124.772000,49.390000C124.432093,49.230135,124.026365,49.355535,123.835939,49.679312C123.645513,50.003088,123.733094,50.418624,124.038000,50.638000L143.130000,62.130000C143.469907,62.289865,143.875635,62.164465,144.066061,61.840688C144.256487,61.516912,144.168906,61.101376,143.864000,60.882000L143.870000,60.882000ZM143.079000,65.557000L116.763000,49.717000C116.423346,49.559040,116.019269,49.685016,115.829560,50.008013C115.639851,50.331010,115.726619,50.745280,116.030000,50.965000L142.345000,66.805000C142.684907,66.964865,143.090635,66.839465,143.281061,66.515688C143.471487,66.191912,143.383906,65.776376,143.079000,65.557000Z" fill="rgb(242,242,242)" stroke="none" stroke-width="1"/></g></g></g></g><g id="e3zg9kz0km6g30"><path id="e3zg9kz0km6g31" style="mix-blend-mode:multiply" d="M69.658000,72.142000L55.847000,80.020000C55.847000,80.020000,57.017000,87.242000,63.875000,90.123000L81.957000,78.547000" opacity="0.46" fill="url(#e3zg9kz0km6g31-fill)" stroke="none" stroke-width="1"/><ellipse id="e3zg9kz0km6g32" rx="8.330000" ry="5.865000" transform="matrix(1 0 0 1 76.41800000000001 74.15500000000000)" fill="rgb(104,225,253)" stroke="none" stroke-width="1"/><ellipse id="e3zg9kz0km6g33" rx="6.240000" ry="2.553000" transform="matrix(1 0 0 1 76.41200000000001 70.69499999999999)" fill="rgb(151,76,38)" stroke="none" stroke-width="1"/><g id="e3zg9kz0km6g34"><path id="e3zg9kz0km6g35" d="M76.187000,66.438000C76.187000,65.287000,76.148000,64.135000,76.058000,62.984000C76.032000,62.684000,76.004000,62.386000,75.974000,62.090000L75.910000,61.505000C75.910000,61.332000,75.820000,60.862000,75.820000,60.907000C75.781000,60.671000,75.740000,60.437000,75.698000,60.207000C75.017525,56.298966,73.499082,52.584563,71.247000,49.319000C70.399404,51.335398,69.976604,53.504885,70.005000,55.692000C70.005000,56.335000,70.056000,56.978000,70.108000,57.582000L70.108000,57.962000C70.361461,59.453861,70.749032,60.919806,71.266000,62.342000C71.634514,63.378647,72.083896,64.384742,72.610000,65.351000C73.177771,66.438881,73.793715,67.500933,74.456000,68.534000C74.971000,69.344000,75.460000,70.064000,75.956000,70.753000C76.110000,69.319000,76.180000,67.878000,76.186000,66.438000ZM72.913000,53.492000C72.946003,53.343815,72.946003,53.190185,72.913000,53.042000C73.071000,53.205000,73.228000,53.372000,73.383000,53.544000C73.228071,53.499887,73.066795,53.482305,72.906000,53.492000L72.913000,53.492000Z" fill="rgb(153,154,28)" stroke="none" stroke-width="1"/><path id="e3zg9kz0km6g36" d="M78.329000,67.325000C78.972000,66.355000,79.539000,65.395000,80.085000,64.348000C80.226000,64.082000,80.364000,63.816000,80.497000,63.550000L80.760000,63.016000L81.011000,62.463000L81.288000,61.820000C82.829711,58.161684,83.560475,54.212761,83.430000,50.245000C81.621904,51.483037,80.088902,53.081063,78.927000,54.939000C78.593554,55.474978,78.282291,56.024442,77.994000,56.586000L77.866000,56.823000L77.833000,56.926000C77.711000,57.216000,77.589000,57.506000,77.473000,57.801000C77.046453,58.921533,76.700571,60.071131,76.438000,61.241000C76.187442,62.313318,76.021598,63.403679,75.942000,64.502000C75.828447,65.722681,75.772718,66.948051,75.775000,68.174000C75.775000,69.132000,75.775000,70.007000,75.833000,70.849000C76.688000,69.711000,77.550000,68.541000,78.329000,67.325000ZM82.574000,54.663000C82.675000,54.550000,82.750000,54.416000,82.793000,54.270000C82.840000,54.493000,82.881000,54.708000,82.915000,54.914000C82.815000,54.814000,82.700000,54.729000,82.575000,54.663000Z" fill="rgb(153,154,28)" stroke="none" stroke-width="1"/><path id="e3zg9kz0km6g37" d="M78.284000,70.193000C78.931000,69.872000,79.574000,69.525000,80.214000,69.152000L80.696000,68.856000L81.011000,68.656000L81.320000,68.438000L81.680000,68.174000C83.690958,66.698352,85.358789,64.805027,86.569000,62.624000C85.195941,62.712105,83.855754,63.082129,82.632000,63.711000C82.278000,63.891000,81.937000,64.091000,81.596000,64.296000L81.449000,64.386000L81.397000,64.431000L80.921000,64.785000C80.328000,65.252000,79.769000,65.762000,79.249000,66.309000C78.768000,66.807000,78.327000,67.343000,77.929000,67.910000C77.482594,68.541335,77.053763,69.184915,76.643000,69.840000C76.335000,70.354000,76.058000,70.836000,75.813000,71.306000C76.643000,70.959000,77.473000,70.598000,78.283000,70.193000ZM84.664000,64.727000C84.755115,64.698755,84.838803,64.650592,84.909000,64.586000C84.862134,64.722657,84.810773,64.857730,84.755000,64.991000C84.738208,64.901265,84.707861,64.814606,84.665000,64.734000L84.665000,64.727000Z" fill="rgb(153,154,28)" stroke="none" stroke-width="1"/></g></g><g id="e3zg9kz0km6g38"><path id="e3zg9kz0km6g39" style="mix-blend-mode:multiply" d="M116.570000,148.670000L94.796000,136.277000L73.022000,148.695000C73.022000,148.695000,84.362000,155.615000,95.202000,161.969000C102.084000,157.101000,108.973000,152.181000,116.570000,148.669000Z" opacity="0.25" fill="url(#e3zg9kz0km6g39-fill)" stroke="none" stroke-width="1"/><path id="e3zg9kz0km6g40" d="M98.250000,62.187000C95.226136,64.788972,92.939100,68.139866,91.618000,71.904000C89.290000,78.334000,95.111000,88.843000,95.111000,88.843000L104.168000,81.673000" fill="rgb(255,143,111)" stroke="none" stroke-width="1"/><path id="e3zg9kz0km6g41" d="M109.745000,73.068000L108.639000,84.001000C108.639000,84.001000,99.679000,84.361000,95.819000,81.698000L95.819000,72.425000" fill="rgb(255,143,111)" stroke="none" stroke-width="1"/><path id="e3zg9kz0km6g42" d="M97.273000,147.210000L94.815000,145.853000L95.459000,142.342000C95.459000,142.342000,99.119000,142.689000,99.440000,143.988000" fill="rgb(0,59,148)" stroke="none" stroke-width="1"/><path id="e3zg9kz0km6g43" d="M98.173000,147.158000C98.726000,146.818000,99.305000,146.515000,99.878000,146.213000C101.299000,145.435000,103.351000,144.631000,104.226000,143.171000C104.592974,142.566624,104.546755,141.798044,104.110000,141.242000C102.824000,139.686000,100.006000,142.245000,98.566000,140.522000C98.283000,140.181000,98.147000,134.772000,98.147000,134.772000L92.667000,136.252000C92.667000,136.252000,91.741000,147.120000,91.844000,147.789000C91.946000,148.457000,93.831000,149.075000,93.831000,149.075000C94.392517,148.955892,94.928474,148.738191,95.414000,148.432000C95.986000,148.014000,95.465000,142.914000,96.198000,143.628000C96.932000,144.342000,97.253000,147.133000,97.253000,147.133000C97.558000,147.179000,97.867000,147.187000,98.173000,147.158000Z" fill="rgb(244,123,86)" stroke="none" stroke-width="1"/><path id="e3zg9kz0km6g44" d="M107.738000,152.464000L105.281000,151.126000L105.924000,147.615000C105.924000,147.615000,109.584000,147.962000,109.906000,149.261000" fill="rgb(0,59,148)" stroke="none" stroke-width="1"/><path id="e3zg9kz0km6g45" d="M108.665000,152.412000C109.218000,152.072000,109.797000,151.769000,110.369000,151.467000C111.791000,150.689000,113.843000,149.885000,114.718000,148.425000C115.084974,147.820624,115.038755,147.052044,114.602000,146.496000C113.315000,144.940000,110.498000,147.499000,109.057000,145.776000C108.774000,145.435000,108.639000,140.026000,108.639000,140.026000L103.159000,141.506000C103.159000,141.506000,102.226000,152.412000,102.329000,153.056000C102.431000,153.699000,104.316000,154.342000,104.316000,154.342000C104.877517,154.222892,105.413474,154.005191,105.899000,153.699000C106.471000,153.281000,105.950000,148.181000,106.683000,148.895000C107.417000,149.609000,107.738000,152.400000,107.738000,152.400000C108.045000,152.442000,108.357000,152.446000,108.665000,152.412000Z" fill="rgb(244,123,86)" stroke="none" stroke-width="1"/><path id="e3zg9kz0km6g46" d="M89.882000,117.133000L88.267000,138.721000C88.267000,138.721000,90.840000,142.271000,99.467000,140.297000L99.550000,125.744000M99.846000,121.410000C99.659000,123.268000,99.846000,143.770000,99.846000,143.770000C99.846000,143.770000,102.232000,148.232000,112.621000,143.770000L112.473000,126.348000" fill="rgb(62,41,40)" stroke="none" stroke-width="1"/><path id="e3zg9kz0km6g47" d="M89.078000,124.264000C89.785000,124.754000,90.030000,122.239000,90.769000,122.670000C93.460458,124.232670,96.316917,125.492034,99.286000,126.425000L99.350000,126.425000C99.493060,126.355489,99.658231,126.347117,99.807586,126.401805C99.956942,126.456494,100.077652,126.569544,100.142000,126.715000C101.976000,127.262000,103.842000,127.691000,105.732000,128.001000C108.156000,128.387000,110.163000,126.592000,112.652000,126.471000C112.652000,116.940000,112.698000,89.814000,108.639000,84.026000L96.629000,79.988000C96.571000,80.978000,90.801000,87.666000,90.943000,95.821000C91.103000,105.011000,89.907000,113.679000,89.701000,116.554000C89.669000,117.043000,89.103000,123.744000,89.078000,124.264000Z" fill="rgb(62,41,40)" stroke="none" stroke-width="1"/><g id="e3zg9kz0km6g48"><path id="e3zg9kz0km6g49" d="M121.137000,65.872000L120.224000,67.119000C120.710829,66.104277,121.140174,65.062965,121.510000,64C121.768000,63.274000,120.603000,62.984000,120.346000,63.711000L120.211000,64.084000C120.323000,63.698000,120.428000,63.310000,120.526000,62.920000C120.584306,62.709799,120.523935,62.484514,120.368333,62.331635C120.212731,62.178755,119.986415,62.122371,119.777276,62.184378C119.568137,62.246385,119.409128,62.417014,119.362000,62.630000C119.109681,63.639516,118.806969,64.635763,118.455000,65.615000C118.651695,64.745757,118.793641,63.865026,118.880000,62.978000C118.957000,62.213000,117.754000,62.245000,117.683000,62.978000C117.583000,63.988000,117.403000,64.988000,117.143000,65.968000C117.142629,65.622735,117.110156,65.278252,117.046000,64.939000C117.028291,64.766414,116.937222,64.609776,116.796000,64.509000C116.763323,64.374002,116.724617,64.240535,116.680000,64.109000C116.585981,63.830794,116.305754,63.660281,116.015461,63.704638C115.725167,63.748995,115.508648,63.995412,115.502000,64.289000L115.425000,68.791000C115.207000,69.258000,114.924000,69.691000,114.583000,70.078000C115.161000,70.478000,115.720000,70.908000,116.255000,71.364000C116.733000,71.767000,117.188000,72.197000,117.619000,72.650000C118.005000,72.170000,118.376000,71.681000,118.732000,71.184000C118.775964,71.146371,118.814646,71.102979,118.847000,71.055000C119.918553,69.469729,121.025498,67.908670,122.167000,66.373000C122.643000,65.846000,121.594000,65.261000,121.137000,65.872000Z" fill="rgb(255,181,169)" stroke="none" stroke-width="1"/><path id="e3zg9kz0km6g50" d="M104.059000,63.100000C104.059000,63.100000,108.292000,64.238000,110.009000,66.959000C111.084570,68.841562,112.032374,70.794298,112.846000,72.804000L115.972000,67.949000C115.972000,67.949000,119.767000,69.113000,121.272000,70.978000C121.272000,70.978000,116.770000,80.818000,112.846000,81.660000C108.922000,82.502000,104.754000,75.885000,104.754000,75.885000C104.754000,75.885000,103.892000,78.650000,104.059000,75.698000" fill="rgb(255,143,111)" stroke="none" stroke-width="1"/></g><path id="e3zg9kz0km6g51" d="M106.748000,73.615000C105.517501,72.614389,104.588725,71.292018,104.065000,69.795000C103.557000,68.065000,104.194000,66.547000,104.785000,64.939000C105.425836,63.345404,105.799841,61.657146,105.892000,59.942000C105.944000,58.258000,105.751000,56.572000,105.635000,54.894000C105.618596,54.822259,105.618596,54.747741,105.635000,54.676000C105.069000,52.778000,103.911000,51.171000,101.627000,50.978000C95.716000,50.476000,95.381000,57.023000,95.427000,59.685000C95.471000,62.348000,95.755000,64.148000,93.793000,65.261000C91.831000,66.373000,90.415000,69.293000,92.287000,71.653000C94.159000,74.013000,92.480000,73.152000,91.232000,75.248000C89.985000,77.345000,90.306000,79.962000,92.866000,80.908000C95.426000,81.853000,107.326000,80.078000,108.420000,78.978000C108.808237,78.534965,109.009045,77.958357,108.980000,77.370000C108.712893,75.890229,107.920258,74.556742,106.748000,73.615000Z" fill="rgb(0,127,104)" stroke="none" stroke-width="1"/></g><path id="e3zg9kz0km6g52" style="mix-blend-mode:multiply" d="M60.324000,116.676000L38.550000,104.290000L16.782000,116.702000C16.782000,116.702000,28.895000,124.264000,39.733000,130.618000C46.616000,125.756000,52.733000,120.194000,60.324000,116.676000Z" opacity="0.25" fill="url(#e3zg9kz0km6g52-fill)" stroke="none" stroke-width="1"/></g><g id="e3zg9kz0km6g53_to" transform="translate(72.339001,94.415501)"><g id="e3zg9kz0km6g53" transform="translate(-72.339001,-94.415501)"><g id="e3zg9kz0km6g54" transform="matrix(1 0 0 1 50 68)"><use id="e3zg9kz0km6g55" width="44.678001" height="40.947002" xlink:href="#e3zg9kz0km6g2" fill="rgb(0,0,0)" fill-rule="evenodd" stroke="none" stroke-width="1"/><use id="e3zg9kz0km6g56" width="44.678001" height="40.947002" xlink:href="#e3zg9kz0km6g2" fill="rgb(255,146,113)" fill-rule="evenodd" stroke="none" stroke-width="1"/></g><path id="e3zg9kz0km6g57" d="M50,81.878000L74.347000,68L94.677000,79.883000L70.984000,93.896000Z" fill="rgb(244,123,86)" stroke="none" stroke-width="1"/><path id="e3zg9kz0km6g58" d="M71.541000,74.182000C74.009800,74.015390,76.474747,74.558414,78.645000,75.747000C79.888000,76.478000,80.567000,77.241000,80.663000,78.037000C80.759000,78.832000,80.349000,79.524000,79.382000,80.107000C78.923169,80.390467,78.417660,80.590233,77.889000,80.697000C77.455000,80.800000,77.009000,80.846000,76.563000,80.832000L76.076000,80.794000C76.122000,80.903000,76.152000,81.017000,76.166000,81.134000C76.150846,81.410764,76.062505,81.678547,75.910000,81.910000C75.656000,82.340000,75.294000,82.696000,74.860000,82.942000C73.847667,83.543520,72.687333,83.850056,71.510000,83.827000C70.291637,83.860023,69.087788,83.556206,68.031000,82.949000C67.032000,82.359000,66.520000,81.666000,66.481000,80.871000C66.488859,80.012018,66.986191,79.232825,67.762000,78.864000C68.127027,78.636212,68.524572,78.465258,68.941000,78.357000C69.272742,78.261209,69.614238,78.203175,69.959000,78.184000L70.312000,78.184000L69.671000,77.799000L71.471000,76.677000L75.641000,79.133000C76.288686,79.481827,77.068314,79.481827,77.716000,79.133000C78.600000,78.582000,78.284000,77.857000,76.768000,76.959000C75.156885,76.071652,73.325347,75.664258,71.490000,75.785000C69.544765,75.808866,67.641834,76.356015,65.981000,77.369000C64.470000,78.314000,63.721000,79.441000,63.733000,80.749000C63.733000,82.032000,64.533000,83.173000,66.090000,84.090000C67.790000,85.040000,69.719000,85.500000,71.663000,85.418000C73.599244,85.449864,75.506345,84.943750,77.172000,83.956000C77.748205,83.614139,78.264955,83.180812,78.702000,82.673000C78.995000,82.363000,79.214000,81.990000,79.343000,81.583000L79.433000,81.179000L81.809000,81.313000C81.813000,81.386000,81.813000,81.459000,81.809000,81.532000C81.766000,81.728000,81.708000,81.921000,81.636000,82.109000C81.533000,82.409000,81.396000,82.699000,81.226000,82.968000C80.982000,83.332000,80.699000,83.668000,80.381000,83.968000C79.961000,84.373000,79.501000,84.730000,79.004000,85.033000C77.573958,85.891436,75.989938,86.462132,74.341000,86.713000C72.543950,87.026877,70.709007,87.059265,68.902000,86.809000C67.259414,86.615629,65.671831,86.096860,64.232000,85.283000C63.069941,84.667331,62.139520,83.690582,61.581000,82.500000C61.119455,81.449806,61.119455,80.254194,61.581000,79.204000C62.134403,77.991288,63.055636,76.983635,64.214000,76.324000C66.420834,74.967615,68.951060,74.227920,71.541000,74.182000ZM73.873000,80.813000C73.787799,80.368025,73.488419,79.993801,73.073000,79.813000C72.568092,79.515684,71.992942,79.358605,71.407000,79.358000C70.862778,79.337332,70.324278,79.475258,69.857000,79.755000C69.473000,79.942000,69.226000,80.328000,69.217000,80.755000C69.275000,81.200000,69.562000,81.582000,69.972000,81.762000C70.488073,82.056902,71.074766,82.205563,71.669000,82.192000C72.240275,82.206412,72.804083,82.059828,73.296000,81.769000C73.669000,81.599000,73.906000,81.223000,73.899000,80.813000" fill="rgb(62,41,40)" stroke="none" stroke-width="1"/><path id="e3zg9kz0km6g59" d="M70.984000,93.896000L70.984000,120.831000L94.678000,106.818000L94.678000,79.883000Z" fill="rgb(223,92,52)" stroke="none" stroke-width="1"/></g></g></g></svg>